<svg width="245" height="245" viewBox="0 0 245 245" fill="none" xmlns="http://www.w3.org/2000/svg">
<rect width="245" height="245" rx="44" fill="white"/>
<path d="M118.042 43.1398C118.707 38.5762 125.293 38.5762 125.958 43.1398L135.061 105.558C135.317 107.308 136.692 108.683 138.442 108.939L200.86 118.042C205.424 118.707 205.424 125.293 200.86 125.958L138.442 135.061C136.692 135.317 135.317 136.692 135.061 138.442L125.958 200.86C125.293 205.424 118.707 205.424 118.042 200.86L108.939 138.442C108.683 136.692 107.308 135.317 105.558 135.061L43.1398 125.958C38.5762 125.293 38.5762 118.707 43.1398 118.042L105.558 108.939C107.308 108.683 108.683 107.308 108.939 105.558L118.042 43.1398Z" fill="#000001"/>
</svg>
